<svg xmlns="http://www.w3.org/2000/svg" xmlns:xlink="http://www.w3.org/1999/xlink" width="500" zoomAndPan="magnify" viewBox="0 0 375 374.999991" height="500" preserveAspectRatio="xMidYMid meet" version="1.0"><defs><clipPath id="6648a83535"><path d="M 90.101562 79 L 281 79 L 281 296 L 90.101562 296 Z M 90.101562 79 " clip-rule="nonzero"/></clipPath><clipPath id="1a48581188"><path d="M 179 180 L 285.101562 180 L 285.101562 296 L 179 296 Z M 179 180 " clip-rule="nonzero"/></clipPath><clipPath id="97c712d2ce"><path d="M 90.101562 79 L 134 79 L 134 197 L 90.101562 197 Z M 90.101562 79 " clip-rule="nonzero"/></clipPath><clipPath id="76fc6040c6"><path d="M 90.101562 78.839844 L 135 78.839844 L 135 198 L 90.101562 198 Z M 90.101562 78.839844 " clip-rule="nonzero"/></clipPath></defs><rect x="-37.5" width="450" fill="#ffffff" y="-37.499999" height="449.999989" fill-opacity="1"/><rect x="-37.5" width="450" fill="#1d1d1d" y="-37.499999" height="449.999989" fill-opacity="1"/><g clip-path="url(#6648a83535)"><path fill="#ff8b32" d="M 133.726562 230.167969 L 151.386719 212.167969 L 151.386719 212.140625 L 280.320312 79.617188 L 221.753906 79.617188 L 173.339844 132.324219 L 133.726562 175.414062 L 90.1875 222.820312 L 90.1875 295.378906 L 133.726562 295.378906 Z M 133.726562 230.167969 " fill-opacity="1" fill-rule="evenodd"/></g><path fill="#ffffff" d="M 180.375 212.449219 L 228.371094 295.378906 L 284.75 295.378906 L 210.597656 181.359375 Z M 180.375 212.449219 " fill-opacity="1" fill-rule="evenodd"/><g clip-path="url(#1a48581188)"><path stroke-linecap="butt" transform="matrix(2.803527, 0, 0, 2.803527, 90.102186, 79.533614)" fill="none" stroke-linejoin="miter" d="M 32.199734 47.410143 L 49.319632 76.990631 L 69.429626 76.990631 L 42.979961 36.320596 Z M 32.199734 47.410143 " stroke="#383336" stroke-width="0.06" stroke-opacity="1" stroke-miterlimit="2.613"/></g><g clip-path="url(#97c712d2ce)"><path fill="#ffffff" d="M 90.1875 196.777344 L 133.726562 149.371094 L 133.726562 79.617188 L 90.1875 79.617188 Z M 90.1875 196.777344 " fill-opacity="1" fill-rule="evenodd"/></g><g clip-path="url(#76fc6040c6)"><path stroke-linecap="butt" transform="matrix(2.803527, 0, 0, 2.803527, 90.102186, 79.533614)" fill="none" stroke-linejoin="miter" d="M 0.030431 41.820086 L 15.560535 24.910581 L 15.560535 0.0298101 L 0.030431 0.0298101 Z M 0.030431 41.820086 " stroke="#383336" stroke-width="0.06" stroke-opacity="1" stroke-miterlimit="2.613"/></g></svg>